<svg width="85" height="33" viewBox="0 0 85 33" fill="none" xmlns="http://www.w3.org/2000/svg">
<path d="M39.1666 0.842491C38.062 0.842491 37.1666 1.73792 37.1666 2.84249V30.5009C37.1666 31.6055 38.062 32.5009 39.1666 32.5009H55.4673C56.5719 32.5009 57.4673 31.6055 57.4673 30.5009V29.2245C57.4673 28.12 56.5719 27.2245 55.4673 27.2245H44.3535C43.249 27.2245 42.3535 26.3291 42.3535 25.2245V2.84249C42.3535 1.73792 41.4581 0.842491 40.3535 0.842491H39.1666Z" fill="black"/>
<path d="M52.4592 16.9847C52.4592 15.9228 53.32 15.062 54.382 15.062C55.4439 15.062 56.3047 15.9228 56.3047 16.9847V23.6026C56.3047 24.6645 55.4439 25.5253 54.382 25.5253C53.32 25.5253 52.4592 24.6645 52.4592 23.6026V16.9847Z" fill="black"/>
<path d="M43.7844 16.94C43.7844 16.2979 44.3049 15.7774 44.947 15.7774C45.5891 15.7774 46.1096 16.2979 46.1096 16.94V24.3627C46.1096 25.0048 45.5891 25.5253 44.947 25.5253C44.3049 25.5253 43.7844 25.0048 43.7844 24.3627V16.94Z" fill="black"/>
<path d="M59.7031 27.5253C59.7031 26.4208 60.5985 25.5253 61.7031 25.5253H63.1583C64.2629 25.5253 65.1583 26.4208 65.1583 27.5253V30.5009C65.1583 31.6055 64.2629 32.5009 63.1583 32.5009H61.7031C60.5985 32.5009 59.7031 31.6055 59.7031 30.5009V27.5253Z" fill="black"/>
<path d="M2.5 32.5009C1.39543 32.5009 0.5 31.6055 0.5 30.5009V2.84249C0.5 1.73792 1.39543 0.842491 2.5 0.842491H4.26243C4.92918 0.842491 5.55209 1.17476 5.92347 1.7285L14.7706 14.9202C15.1313 15.458 15.2092 16.1371 14.9799 16.7426L14.513 17.9752C13.9317 19.5097 11.8517 19.7299 10.9621 18.351L9.63586 16.2954C8.55464 14.6195 5.95527 15.3852 5.95527 17.3796V29.2808C5.95527 29.7438 5.79462 30.1925 5.50072 30.5502L4.49844 31.7704C4.11854 32.2329 3.55149 32.5009 2.95298 32.5009H2.5Z" fill="#2E89DA"/>
<path d="M17.121 18.1506C16.8132 17.7768 16.2148 17.8839 16.0557 18.3413L14.6425 22.4043C14.4127 23.0649 14.5447 23.7976 14.9907 24.3364L15.6807 25.1703C16.1372 25.7218 16.8537 25.9873 17.5594 25.8664L18.6636 25.6771C19.2266 25.5806 19.7215 25.2479 20.0234 24.7631L25.1518 16.5281C26.2149 14.821 28.8495 15.5743 28.8495 17.5853V29.2808C28.8495 29.7438 29.0102 30.1925 29.3041 30.5502L30.3063 31.7704C30.6862 32.2329 31.2533 32.5009 31.8518 32.5009H32.2153C33.3199 32.5009 34.2153 31.6055 34.2153 30.5009V2.84249C34.2153 1.73792 33.3199 0.842491 32.2153 0.842491H29.9609C29.2698 0.842491 28.6276 1.19936 28.2626 1.78629L18.1273 18.0838C17.903 18.4444 17.391 18.4784 17.121 18.1506Z" fill="#27BAB4"/>
<path d="M49.2844 11.3953C48.2719 11.3953 47.4511 12.2161 47.4511 13.2286V23.692C47.4511 24.7045 48.2719 25.5253 49.2844 25.5253C50.2969 25.5253 51.1177 24.7045 51.1177 23.692V13.2286C51.1177 12.2161 50.2969 11.3953 49.2844 11.3953Z" fill="#27BAB4"/>
<path d="M61.7031 23.4684C60.5985 23.4684 59.7031 22.573 59.7031 21.4684V13.3953C59.7031 12.2907 60.5985 11.3953 61.7031 11.3953H63.1583C64.2629 11.3953 65.1583 12.2907 65.1583 13.3953V16.3231C65.1583 17.4113 66.0277 18.2995 67.1158 18.3171C69.6419 18.3581 73.7376 18.4048 73.9225 18.2815C73.9961 18.2324 73.9654 18.2402 74.5304 18.0975C75.0953 17.9549 76.4398 17.8431 77.5892 16.7611C78.7386 15.6792 79.3356 13.8084 79.2884 11.8425C79.2412 9.87652 78.7207 8.38486 77.5892 7.2815C76.4577 6.17813 74.6992 5.94794 74.2494 5.84524C73.7995 5.74254 74.0293 5.81458 73.9225 5.76118C73.8359 5.71783 68.1158 5.68593 65.9645 5.67545C65.5196 5.67329 65.1583 6.03339 65.1583 6.47829C65.1583 6.92189 64.7987 7.2815 64.3551 7.2815H63.6827C63.1147 7.2815 62.6543 7.74195 62.6543 8.30995C62.6543 8.87795 62.1938 9.3384 61.6258 9.3384H61.1787C60.3637 9.3384 59.7031 8.67775 59.7031 7.86279V2.75996C59.7031 1.68815 60.5424 0.807811 61.6136 0.770531C65.4087 0.638452 73.6764 0.408582 75.3534 0.842491C75.5061 0.881994 75.6567 0.920613 75.8026 0.95802C77.7509 1.45761 79.1265 1.81035 80.8087 3.07826C84.0146 5.49463 84.7546 9.2505 84.7436 11.8425C84.7327 14.4344 84.3605 16.0484 83.0445 18.2815C81.9909 20.0691 81.3965 20.6509 79.9144 21.6798C77.228 23.5448 73.7021 23.4684 70.4318 23.4684H61.7031Z" fill="black"/>
<path d="M39.1666 0.842491C38.062 0.842491 37.1666 1.73792 37.1666 2.84249V30.5009C37.1666 31.6055 38.062 32.5009 39.1666 32.5009H55.4673C56.5719 32.5009 57.4673 31.6055 57.4673 30.5009V29.2245C57.4673 28.12 56.5719 27.2245 55.4673 27.2245H44.3535C43.249 27.2245 42.3535 26.3291 42.3535 25.2245V2.84249C42.3535 1.73792 41.4581 0.842491 40.3535 0.842491H39.1666Z" stroke="black" stroke-width="0.2"/>
<path d="M52.4592 16.9847C52.4592 15.9228 53.32 15.062 54.382 15.062C55.4439 15.062 56.3047 15.9228 56.3047 16.9847V23.6026C56.3047 24.6645 55.4439 25.5253 54.382 25.5253C53.32 25.5253 52.4592 24.6645 52.4592 23.6026V16.9847Z" stroke="black" stroke-width="0.2"/>
<path d="M43.7844 16.94C43.7844 16.2979 44.3049 15.7774 44.947 15.7774C45.5891 15.7774 46.1096 16.2979 46.1096 16.94V24.3627C46.1096 25.0048 45.5891 25.5253 44.947 25.5253C44.3049 25.5253 43.7844 25.0048 43.7844 24.3627V16.94Z" stroke="black" stroke-width="0.2"/>
<path d="M59.7031 27.5253C59.7031 26.4208 60.5985 25.5253 61.7031 25.5253H63.1583C64.2629 25.5253 65.1583 26.4208 65.1583 27.5253V30.5009C65.1583 31.6055 64.2629 32.5009 63.1583 32.5009H61.7031C60.5985 32.5009 59.7031 31.6055 59.7031 30.5009V27.5253Z" stroke="black" stroke-width="0.2"/>
<path d="M2.5 32.5009C1.39543 32.5009 0.5 31.6055 0.5 30.5009V2.84249C0.5 1.73792 1.39543 0.842491 2.5 0.842491H4.26243C4.92918 0.842491 5.55209 1.17476 5.92347 1.7285L14.7706 14.9202C15.1313 15.458 15.2092 16.1371 14.9799 16.7426L14.513 17.9752C13.9317 19.5097 11.8517 19.7299 10.9621 18.351L9.63586 16.2954C8.55464 14.6195 5.95527 15.3852 5.95527 17.3796V29.2808C5.95527 29.7438 5.79462 30.1925 5.50072 30.5502L4.49844 31.7704C4.11854 32.2329 3.55149 32.5009 2.95298 32.5009H2.5Z" stroke="black" stroke-width="0.2"/>
<path d="M17.121 18.1506C16.8132 17.7768 16.2148 17.8839 16.0557 18.3413L14.6425 22.4043C14.4127 23.0649 14.5447 23.7976 14.9907 24.3364L15.6807 25.1703C16.1372 25.7218 16.8537 25.9873 17.5594 25.8664L18.6636 25.6771C19.2266 25.5806 19.7215 25.2479 20.0234 24.7631L25.1518 16.5281C26.2149 14.821 28.8495 15.5743 28.8495 17.5853V29.2808C28.8495 29.7438 29.0102 30.1925 29.3041 30.5502L30.3063 31.7704C30.6862 32.2329 31.2533 32.5009 31.8518 32.5009H32.2153C33.3199 32.5009 34.2153 31.6055 34.2153 30.5009V2.84249C34.2153 1.73792 33.3199 0.842491 32.2153 0.842491H29.9609C29.2698 0.842491 28.6276 1.19936 28.2626 1.78629L18.1273 18.0838C17.903 18.4444 17.391 18.4784 17.121 18.1506Z" stroke="black" stroke-width="0.2"/>
<path d="M49.2844 11.3953C48.2719 11.3953 47.4511 12.2161 47.4511 13.2286V23.692C47.4511 24.7045 48.2719 25.5253 49.2844 25.5253C50.2969 25.5253 51.1177 24.7045 51.1177 23.692V13.2286C51.1177 12.2161 50.2969 11.3953 49.2844 11.3953Z" stroke="black" stroke-width="0.2"/>
<path d="M61.7031 23.4684C60.5985 23.4684 59.7031 22.573 59.7031 21.4684V13.3953C59.7031 12.2907 60.5985 11.3953 61.7031 11.3953H63.1583C64.2629 11.3953 65.1583 12.2907 65.1583 13.3953V16.3231C65.1583 17.4113 66.0277 18.2995 67.1158 18.3171C69.6419 18.3581 73.7376 18.4048 73.9225 18.2815C73.9961 18.2324 73.9654 18.2402 74.5304 18.0975C75.0953 17.9549 76.4398 17.8431 77.5892 16.7611C78.7386 15.6792 79.3356 13.8084 79.2884 11.8425C79.2412 9.87652 78.7207 8.38486 77.5892 7.2815C76.4577 6.17813 74.6992 5.94794 74.2494 5.84524C73.7995 5.74254 74.0293 5.81458 73.9225 5.76118C73.8359 5.71783 68.1158 5.68593 65.9645 5.67545C65.5196 5.67329 65.1583 6.03339 65.1583 6.47829C65.1583 6.92189 64.7987 7.2815 64.3551 7.2815H63.6827C63.1147 7.2815 62.6543 7.74195 62.6543 8.30995C62.6543 8.87795 62.1938 9.3384 61.6258 9.3384H61.1787C60.3637 9.3384 59.7031 8.67775 59.7031 7.86279V2.75996C59.7031 1.68815 60.5424 0.807811 61.6136 0.770531C65.4087 0.638452 73.6764 0.408582 75.3534 0.842491C75.5061 0.881994 75.6567 0.920613 75.8026 0.95802C77.7509 1.45761 79.1265 1.81035 80.8087 3.07826C84.0146 5.49463 84.7546 9.2505 84.7436 11.8425C84.7327 14.4344 84.3605 16.0484 83.0445 18.2815C81.9909 20.0691 81.3965 20.6509 79.9144 21.6798C77.228 23.5448 73.7021 23.4684 70.4318 23.4684H61.7031Z" stroke="black" stroke-width="0.2"/>
<path d="M34.1 4.45001L28.9 17.7314V29.2037C28.9 29.6671 29.0609 30.1161 29.3552 30.474L30.3799 31.7203C30.7599 32.1823 31.3266 32.45 31.9248 32.45H32.1C33.2046 32.45 34.1 31.5546 34.1 30.45V4.45001Z" fill="#2E89DA"/>
<path d="M66.6915 8.17581H64.264C63.9183 8.17581 63.638 8.45609 63.638 8.80183C63.638 9.14756 63.9183 9.42784 64.264 9.42784H65.7972C66.2613 9.42784 66.6643 9.74708 66.7706 10.1988L67.8387 14.7382C67.945 15.1899 68.3481 15.5091 68.8121 15.5091H74.1014C74.4471 15.5091 74.7274 15.2288 74.7274 14.8831C74.7274 14.5374 74.4471 14.2571 74.1014 14.2571H69.7064C69.2424 14.2571 68.8393 13.9378 68.733 13.4861L67.6649 8.94677C67.5586 8.49506 67.1556 8.17581 66.6915 8.17581Z" fill="black"/>
<path d="M74.691 9.6067H69.6722C69.0174 9.6067 68.5393 10.2255 68.7046 10.8591L69.256 12.9729C69.3709 13.4133 69.7685 13.7205 70.2236 13.7205H74.0017C74.4345 13.7205 74.8182 13.442 74.9524 13.0305L75.6417 10.9167C75.8524 10.2704 75.3708 9.6067 74.691 9.6067Z" fill="black"/>
<path d="M66.6915 8.17581H64.264C63.9183 8.17581 63.638 8.45609 63.638 8.80183C63.638 9.14756 63.9183 9.42784 64.264 9.42784H65.7972C66.2613 9.42784 66.6643 9.74708 66.7706 10.1988L67.8387 14.7382C67.945 15.1899 68.3481 15.5091 68.8121 15.5091H74.1014C74.4471 15.5091 74.7274 15.2288 74.7274 14.8831C74.7274 14.5374 74.4471 14.2571 74.1014 14.2571H69.7064C69.2424 14.2571 68.8393 13.9378 68.733 13.4861L67.6649 8.94677C67.5586 8.49506 67.1556 8.17581 66.6915 8.17581Z" stroke="black"/>
<path d="M74.691 9.6067H69.6722C69.0174 9.6067 68.5393 10.2255 68.7046 10.8591L69.256 12.9729C69.3709 13.4133 69.7685 13.7205 70.2236 13.7205H74.0017C74.4345 13.7205 74.8182 13.442 74.9524 13.0305L75.6417 10.9167C75.8524 10.2704 75.3708 9.6067 74.691 9.6067Z" stroke="black"/>
<circle cx="69.5404" cy="16.6717" r="0.804876" fill="black"/>
<circle cx="73.4754" cy="16.6717" r="0.804876" fill="black"/>
</svg>
